<?xml version="1.0" encoding="UTF-8"?>
<svg width="1023px" height="136px" viewBox="0 0 1023 136" version="1.1" xmlns="http://www.w3.org/2000/svg" xmlns:xlink="http://www.w3.org/1999/xlink">
    <!-- Generator: Sketch 54.1 (76490) - https://sketchapp.com -->
    <title>Group</title>
    <desc>Created with Sketch.</desc>
    <defs>
        <linearGradient x1="0%" y1="50.4423642%" x2="100%" y2="49.4757142%" id="linearGradient-1">
            <stop stop-color="#FFA384" offset="0%"></stop>
            <stop stop-color="#FFFFFF" stop-opacity="0.717029065" offset="100%"></stop>
        </linearGradient>
        <linearGradient x1="0%" y1="50.5867609%" x2="100%" y2="49.4913355%" id="linearGradient-2">
            <stop stop-color="#FFFFFF" stop-opacity="0.338204764" offset="0%"></stop>
            <stop stop-color="#FFA384" offset="100%"></stop>
        </linearGradient>
    </defs>
    <g id="Page-1" stroke="none" stroke-width="1" fill="none" fill-rule="evenodd">
        <g id="Desktop" transform="translate(0.000000, -107.000000)">
            <g id="Group" transform="translate(-0.000000, 107.000000)">
                <path d="M1023,21 L1023,28.118019 C1001.81212,45.6627292 960.948879,47.8463596 900.410267,34.6689103 C809.60235,14.9027362 721.003096,100.535456 593.694793,100.535456 C466.38649,100.535456 390.527256,34.6689103 259.54988,34.6689103 C172.231629,34.6689103 85.7150025,66.1126069 0,129 L0,120.219091 C85.7150025,58.3683034 172.231629,27.4429095 259.54988,27.4429095 C390.527256,27.4429095 466.38649,92.2237428 593.694793,92.2237428 C721.003096,92.2237428 809.60235,8.00255155 900.410267,27.4429095 C960.948879,40.4031482 1001.81212,38.2555117 1023,21 Z" id="Combined-Shape" fill="url(#linearGradient-1)"></path>
                <path d="M1023,28 L1023,35.118019 C1001.81212,52.6627292 960.948879,54.8463596 900.410267,41.6689103 C809.60235,21.9027362 721.003096,107.535456 593.694793,107.535456 C466.38649,107.535456 390.527256,41.6689103 259.54988,41.6689103 C172.231629,41.6689103 85.7150025,73.1126069 0,136 L0,127.219091 C85.7150025,65.3683034 172.231629,34.4429095 259.54988,34.4429095 C390.527256,34.4429095 466.38649,99.2237428 593.694793,99.2237428 C721.003096,99.2237428 809.60235,15.0025515 900.410267,34.4429095 C960.948879,47.4031482 1001.81212,45.2555117 1023,28 Z" id="Combined-Shape-Copy" fill="url(#linearGradient-2)"></path>
                <path d="M0,0 L1023,0 L1023,21.704065 C1001.81212,38.9729409 960.948879,41.1222407 900.410267,28.1519645 C809.60235,8.69655021 721.003096,92.9829696 593.694793,92.9829696 C466.38649,92.9829696 390.527256,28.1519645 259.54988,28.1519645 C172.231629,28.1519645 85.7150025,59.1013097 0,121 L0,0 Z" id="Rectangle" fill="#FFFFFF"></path>
            </g>
        </g>
    </g>
</svg>